<mxfile host="app.diagrams.net" modified="2024-05-12T12:47:13.957Z" agent="Mozilla/5.0 (Windows NT 10.0; Win64; x64) AppleWebKit/537.36 (KHTML, like Gecko) Chrome/124.0.0.0 Safari/537.36" etag="0PyN2ClN1srJgsrTYlX-" version="24.4.0" type="device">
  <diagram id="R2lEEEUBdFMjLlhIrx00" name="Page-1">
    <mxGraphModel dx="1824" dy="1551" grid="1" gridSize="10" guides="1" tooltips="1" connect="1" arrows="1" fold="1" page="1" pageScale="1" pageWidth="850" pageHeight="1100" math="0" shadow="0" extFonts="Permanent Marker^https://fonts.googleapis.com/css?family=Permanent+Marker">
      <root>
        <mxCell id="0" />
        <mxCell id="1" parent="0" />
        <mxCell id="6m1mBdbRtUY-7AaJxJWh-85" style="edgeStyle=orthogonalEdgeStyle;rounded=0;orthogonalLoop=1;jettySize=auto;html=1;exitX=0.5;exitY=1;exitDx=0;exitDy=0;" edge="1" parent="1" source="6m1mBdbRtUY-7AaJxJWh-1">
          <mxGeometry relative="1" as="geometry">
            <mxPoint x="820.2857142857147" y="160.00000000000023" as="targetPoint" />
          </mxGeometry>
        </mxCell>
        <mxCell id="6m1mBdbRtUY-7AaJxJWh-1" value="Budget" style="whiteSpace=wrap;html=1;align=center;" vertex="1" parent="1">
          <mxGeometry x="770" y="30" width="100" height="40" as="geometry" />
        </mxCell>
        <mxCell id="6m1mBdbRtUY-7AaJxJWh-86" style="edgeStyle=orthogonalEdgeStyle;rounded=0;orthogonalLoop=1;jettySize=auto;html=1;exitX=0.75;exitY=1;exitDx=0;exitDy=0;" edge="1" parent="1" source="6m1mBdbRtUY-7AaJxJWh-2" target="6m1mBdbRtUY-7AaJxJWh-5">
          <mxGeometry relative="1" as="geometry" />
        </mxCell>
        <mxCell id="6m1mBdbRtUY-7AaJxJWh-87" style="edgeStyle=orthogonalEdgeStyle;rounded=0;orthogonalLoop=1;jettySize=auto;html=1;exitX=0.25;exitY=1;exitDx=0;exitDy=0;entryX=0.5;entryY=0;entryDx=0;entryDy=0;" edge="1" parent="1" source="6m1mBdbRtUY-7AaJxJWh-2" target="6m1mBdbRtUY-7AaJxJWh-4">
          <mxGeometry relative="1" as="geometry" />
        </mxCell>
        <mxCell id="6m1mBdbRtUY-7AaJxJWh-2" value="invitation" style="whiteSpace=wrap;html=1;align=center;" vertex="1" parent="1">
          <mxGeometry x="240" y="30" width="100" height="40" as="geometry" />
        </mxCell>
        <mxCell id="6m1mBdbRtUY-7AaJxJWh-3" value="expense" style="whiteSpace=wrap;html=1;align=center;" vertex="1" parent="1">
          <mxGeometry x="770" y="160" width="100" height="40" as="geometry" />
        </mxCell>
        <mxCell id="6m1mBdbRtUY-7AaJxJWh-88" style="edgeStyle=orthogonalEdgeStyle;rounded=0;orthogonalLoop=1;jettySize=auto;html=1;exitX=0;exitY=1;exitDx=0;exitDy=0;entryX=0.5;entryY=0;entryDx=0;entryDy=0;" edge="1" parent="1" source="6m1mBdbRtUY-7AaJxJWh-4" target="6m1mBdbRtUY-7AaJxJWh-9">
          <mxGeometry relative="1" as="geometry">
            <Array as="points">
              <mxPoint x="170" y="200" />
              <mxPoint x="170" y="335" />
              <mxPoint x="-70" y="335" />
            </Array>
          </mxGeometry>
        </mxCell>
        <mxCell id="6m1mBdbRtUY-7AaJxJWh-89" style="edgeStyle=orthogonalEdgeStyle;rounded=0;orthogonalLoop=1;jettySize=auto;html=1;exitX=1;exitY=0.75;exitDx=0;exitDy=0;entryX=0.25;entryY=0;entryDx=0;entryDy=0;" edge="1" parent="1" source="6m1mBdbRtUY-7AaJxJWh-4" target="6m1mBdbRtUY-7AaJxJWh-7">
          <mxGeometry relative="1" as="geometry">
            <Array as="points">
              <mxPoint x="230" y="190" />
              <mxPoint x="230" y="320" />
              <mxPoint x="525" y="320" />
            </Array>
          </mxGeometry>
        </mxCell>
        <mxCell id="6m1mBdbRtUY-7AaJxJWh-4" value="student" style="whiteSpace=wrap;html=1;align=center;" vertex="1" parent="1">
          <mxGeometry x="140" y="160" width="100" height="40" as="geometry" />
        </mxCell>
        <mxCell id="6m1mBdbRtUY-7AaJxJWh-153" style="edgeStyle=orthogonalEdgeStyle;rounded=0;orthogonalLoop=1;jettySize=auto;html=1;exitX=0.25;exitY=1;exitDx=0;exitDy=0;entryX=0.692;entryY=-0.033;entryDx=0;entryDy=0;entryPerimeter=0;" edge="1" parent="1" source="6m1mBdbRtUY-7AaJxJWh-5" target="6m1mBdbRtUY-7AaJxJWh-6">
          <mxGeometry relative="1" as="geometry">
            <mxPoint x="750" y="520" as="targetPoint" />
            <Array as="points">
              <mxPoint x="450" y="280" />
              <mxPoint x="749" y="280" />
            </Array>
          </mxGeometry>
        </mxCell>
        <mxCell id="6m1mBdbRtUY-7AaJxJWh-160" style="edgeStyle=orthogonalEdgeStyle;rounded=0;orthogonalLoop=1;jettySize=auto;html=1;exitX=0.75;exitY=0;exitDx=0;exitDy=0;entryX=0;entryY=0.5;entryDx=0;entryDy=0;" edge="1" parent="1" source="6m1mBdbRtUY-7AaJxJWh-5" target="6m1mBdbRtUY-7AaJxJWh-1">
          <mxGeometry relative="1" as="geometry" />
        </mxCell>
        <mxCell id="6m1mBdbRtUY-7AaJxJWh-5" value="teacher" style="whiteSpace=wrap;html=1;align=center;" vertex="1" parent="1">
          <mxGeometry x="425" y="140" width="100" height="40" as="geometry" />
        </mxCell>
        <mxCell id="6m1mBdbRtUY-7AaJxJWh-6" value="attendance" style="whiteSpace=wrap;html=1;align=center;" vertex="1" parent="1">
          <mxGeometry x="680" y="530" width="100" height="40" as="geometry" />
        </mxCell>
        <mxCell id="6m1mBdbRtUY-7AaJxJWh-7" value="task&lt;span style=&quot;color: rgba(0, 0, 0, 0); font-family: monospace; font-size: 0px; text-align: start; text-wrap: nowrap;&quot;&gt;%3CmxGraphModel%3E%3Croot%3E%3CmxCell%20id%3D%220%22%2F%3E%3CmxCell%20id%3D%221%22%20parent%3D%220%22%2F%3E%3CmxCell%20id%3D%222%22%20value%3D%22Entity%22%20style%3D%22whiteSpace%3Dwrap%3Bhtml%3D1%3Balign%3Dcenter%3B%22%20vertex%3D%221%22%20parent%3D%221%22%3E%3CmxGeometry%20x%3D%2280%22%20y%3D%22140%22%20width%3D%22100%22%20height%3D%2240%22%20as%3D%22geometry%22%2F%3E%3C%2FmxCell%3E%3C%2Froot%3E%3C%2FmxGraphModel%3E&lt;/span&gt;&lt;span style=&quot;color: rgba(0, 0, 0, 0); font-family: monospace; font-size: 0px; text-align: start; text-wrap: nowrap;&quot;&gt;%3CmxGraphModel%3E%3Croot%3E%3CmxCell%20id%3D%220%22%2F%3E%3CmxCell%20id%3D%221%22%20parent%3D%220%22%2F%3E%3CmxCell%20id%3D%222%22%20value%3D%22Entity%22%20style%3D%22whiteSpace%3Dwrap%3Bhtml%3D1%3Balign%3Dcenter%3B%22%20vertex%3D%221%22%20parent%3D%221%22%3E%3CmxGeometry%20x%3D%2280%22%20y%3D%22140%22%20width%3D%22100%22%20height%3D%2240%22%20as%3D%22geometry%22%2F%3E%3C%2FmxCell%3E%3C%2Froot%3E%3C%2FmxGraphModel%3E&lt;/span&gt;" style="whiteSpace=wrap;html=1;align=center;" vertex="1" parent="1">
          <mxGeometry x="500" y="350" width="100" height="40" as="geometry" />
        </mxCell>
        <mxCell id="6m1mBdbRtUY-7AaJxJWh-149" style="edgeStyle=orthogonalEdgeStyle;rounded=0;orthogonalLoop=1;jettySize=auto;html=1;exitX=0.284;exitY=1.012;exitDx=0;exitDy=0;entryX=1;entryY=0;entryDx=0;entryDy=0;exitPerimeter=0;" edge="1" parent="1" source="6m1mBdbRtUY-7AaJxJWh-8" target="6m1mBdbRtUY-7AaJxJWh-13">
          <mxGeometry relative="1" as="geometry">
            <mxPoint x="260" y="610" as="sourcePoint" />
            <Array as="points">
              <mxPoint x="288" y="640" />
            </Array>
          </mxGeometry>
        </mxCell>
        <mxCell id="6m1mBdbRtUY-7AaJxJWh-8" value="performance" style="whiteSpace=wrap;html=1;align=center;" vertex="1" parent="1">
          <mxGeometry x="375" y="520" width="100" height="40" as="geometry" />
        </mxCell>
        <mxCell id="6m1mBdbRtUY-7AaJxJWh-9" value="menu_items" style="whiteSpace=wrap;html=1;align=center;" vertex="1" parent="1">
          <mxGeometry x="-120" y="470" width="100" height="40" as="geometry" />
        </mxCell>
        <mxCell id="6m1mBdbRtUY-7AaJxJWh-10" value="vote" style="whiteSpace=wrap;html=1;align=center;" vertex="1" parent="1">
          <mxGeometry x="110" y="640" width="100" height="40" as="geometry" />
        </mxCell>
        <mxCell id="6m1mBdbRtUY-7AaJxJWh-13" value="Vote" style="whiteSpace=wrap;html=1;align=center;" vertex="1" parent="1">
          <mxGeometry x="110" y="640" width="100" height="40" as="geometry" />
        </mxCell>
        <mxCell id="6m1mBdbRtUY-7AaJxJWh-14" value="V_ID" style="ellipse;whiteSpace=wrap;html=1;align=center;fontStyle=4;" vertex="1" parent="1">
          <mxGeometry x="190" y="720" width="100" height="40" as="geometry" />
        </mxCell>
        <mxCell id="6m1mBdbRtUY-7AaJxJWh-15" value="Type" style="ellipse;whiteSpace=wrap;html=1;align=center;" vertex="1" parent="1">
          <mxGeometry x="-70" y="640" width="100" height="40" as="geometry" />
        </mxCell>
        <mxCell id="6m1mBdbRtUY-7AaJxJWh-16" value="Choice" style="ellipse;shape=doubleEllipse;margin=3;whiteSpace=wrap;html=1;align=center;" vertex="1" parent="1">
          <mxGeometry x="290" y="650" width="100" height="40" as="geometry" />
        </mxCell>
        <mxCell id="6m1mBdbRtUY-7AaJxJWh-17" value="User_ID" style="ellipse;whiteSpace=wrap;html=1;align=center;fontStyle=4;" vertex="1" parent="1">
          <mxGeometry x="20" y="720" width="100" height="40" as="geometry" />
        </mxCell>
        <mxCell id="6m1mBdbRtUY-7AaJxJWh-18" value="" style="endArrow=none;html=1;rounded=0;entryX=0;entryY=1;entryDx=0;entryDy=0;exitX=0.5;exitY=0;exitDx=0;exitDy=0;" edge="1" parent="1" source="6m1mBdbRtUY-7AaJxJWh-17" target="6m1mBdbRtUY-7AaJxJWh-13">
          <mxGeometry width="50" height="50" relative="1" as="geometry">
            <mxPoint x="150" y="850" as="sourcePoint" />
            <mxPoint x="200" y="800" as="targetPoint" />
          </mxGeometry>
        </mxCell>
        <mxCell id="6m1mBdbRtUY-7AaJxJWh-19" value="" style="endArrow=none;html=1;rounded=0;exitX=0.75;exitY=1;exitDx=0;exitDy=0;" edge="1" parent="1" source="6m1mBdbRtUY-7AaJxJWh-13" target="6m1mBdbRtUY-7AaJxJWh-14">
          <mxGeometry width="50" height="50" relative="1" as="geometry">
            <mxPoint x="80" y="830" as="sourcePoint" />
            <mxPoint x="130" y="780" as="targetPoint" />
          </mxGeometry>
        </mxCell>
        <mxCell id="6m1mBdbRtUY-7AaJxJWh-20" value="" style="endArrow=none;html=1;rounded=0;exitX=0;exitY=0.5;exitDx=0;exitDy=0;" edge="1" parent="1" source="6m1mBdbRtUY-7AaJxJWh-13" target="6m1mBdbRtUY-7AaJxJWh-15">
          <mxGeometry width="50" height="50" relative="1" as="geometry">
            <mxPoint x="110" y="660" as="sourcePoint" />
            <mxPoint x="30" y="670" as="targetPoint" />
          </mxGeometry>
        </mxCell>
        <mxCell id="6m1mBdbRtUY-7AaJxJWh-21" value="" style="endArrow=none;html=1;rounded=0;entryX=0;entryY=0.5;entryDx=0;entryDy=0;exitX=1;exitY=0.5;exitDx=0;exitDy=0;" edge="1" parent="1" source="6m1mBdbRtUY-7AaJxJWh-13" target="6m1mBdbRtUY-7AaJxJWh-16">
          <mxGeometry width="50" height="50" relative="1" as="geometry">
            <mxPoint x="250" y="620" as="sourcePoint" />
            <mxPoint x="210" y="770" as="targetPoint" />
          </mxGeometry>
        </mxCell>
        <mxCell id="6m1mBdbRtUY-7AaJxJWh-22" value="M:1" style="text;html=1;align=center;verticalAlign=middle;whiteSpace=wrap;rounded=0;" vertex="1" parent="1">
          <mxGeometry x="225" y="680" width="10" height="20" as="geometry" />
        </mxCell>
        <mxCell id="6m1mBdbRtUY-7AaJxJWh-23" value="role" style="ellipse;whiteSpace=wrap;html=1;align=center;" vertex="1" parent="1">
          <mxGeometry x="80" y="30" width="100" height="40" as="geometry" />
        </mxCell>
        <mxCell id="6m1mBdbRtUY-7AaJxJWh-44" value="&lt;span style=&quot;border-bottom: 1px dotted&quot;&gt;email&lt;/span&gt;" style="ellipse;whiteSpace=wrap;html=1;align=center;" vertex="1" parent="1">
          <mxGeometry x="30" y="230" width="100" height="40" as="geometry" />
        </mxCell>
        <mxCell id="6m1mBdbRtUY-7AaJxJWh-45" value="&lt;span style=&quot;border-bottom: 1px dotted&quot;&gt;password&lt;/span&gt;" style="ellipse;whiteSpace=wrap;html=1;align=center;" vertex="1" parent="1">
          <mxGeometry x="270" y="170" width="100" height="40" as="geometry" />
        </mxCell>
        <mxCell id="6m1mBdbRtUY-7AaJxJWh-46" value="&lt;span style=&quot;border-bottom: 1px dotted&quot;&gt;name&lt;/span&gt;" style="ellipse;whiteSpace=wrap;html=1;align=center;" vertex="1" parent="1">
          <mxGeometry x="-10" y="160" width="100" height="40" as="geometry" />
        </mxCell>
        <mxCell id="6m1mBdbRtUY-7AaJxJWh-47" value="" style="endArrow=none;html=1;rounded=0;entryX=1;entryY=0.75;entryDx=0;entryDy=0;" edge="1" parent="1" source="6m1mBdbRtUY-7AaJxJWh-45" target="6m1mBdbRtUY-7AaJxJWh-4">
          <mxGeometry relative="1" as="geometry">
            <mxPoint x="190" y="240" as="sourcePoint" />
            <mxPoint x="350" y="240" as="targetPoint" />
            <Array as="points" />
          </mxGeometry>
        </mxCell>
        <mxCell id="6m1mBdbRtUY-7AaJxJWh-48" value="" style="endArrow=none;html=1;rounded=0;" edge="1" parent="1" source="6m1mBdbRtUY-7AaJxJWh-23">
          <mxGeometry relative="1" as="geometry">
            <mxPoint x="249" y="251" as="sourcePoint" />
            <mxPoint x="160" y="160" as="targetPoint" />
          </mxGeometry>
        </mxCell>
        <mxCell id="6m1mBdbRtUY-7AaJxJWh-49" value="" style="endArrow=none;html=1;rounded=0;entryX=0;entryY=0.75;entryDx=0;entryDy=0;" edge="1" parent="1" source="6m1mBdbRtUY-7AaJxJWh-44" target="6m1mBdbRtUY-7AaJxJWh-4">
          <mxGeometry relative="1" as="geometry">
            <mxPoint x="259" y="261" as="sourcePoint" />
            <mxPoint x="235" y="220" as="targetPoint" />
            <Array as="points" />
          </mxGeometry>
        </mxCell>
        <mxCell id="6m1mBdbRtUY-7AaJxJWh-50" value="" style="endArrow=none;html=1;rounded=0;" edge="1" parent="1" source="6m1mBdbRtUY-7AaJxJWh-46" target="6m1mBdbRtUY-7AaJxJWh-4">
          <mxGeometry relative="1" as="geometry">
            <mxPoint x="269" y="271" as="sourcePoint" />
            <mxPoint x="245" y="230" as="targetPoint" />
            <Array as="points" />
          </mxGeometry>
        </mxCell>
        <mxCell id="6m1mBdbRtUY-7AaJxJWh-51" value="&lt;span style=&quot;border-bottom: 1px dotted&quot;&gt;SID&lt;/span&gt;" style="ellipse;whiteSpace=wrap;html=1;align=center;" vertex="1" parent="1">
          <mxGeometry x="-5" y="80" width="100" height="40" as="geometry" />
        </mxCell>
        <mxCell id="6m1mBdbRtUY-7AaJxJWh-52" value="" style="endArrow=none;html=1;rounded=0;" edge="1" parent="1" source="6m1mBdbRtUY-7AaJxJWh-51">
          <mxGeometry relative="1" as="geometry">
            <mxPoint x="274" y="191" as="sourcePoint" />
            <mxPoint x="140" y="160" as="targetPoint" />
            <Array as="points" />
          </mxGeometry>
        </mxCell>
        <mxCell id="6m1mBdbRtUY-7AaJxJWh-53" value="&lt;span style=&quot;border-bottom: 1px dotted&quot;&gt;email&lt;/span&gt;" style="ellipse;whiteSpace=wrap;html=1;align=center;" vertex="1" parent="1">
          <mxGeometry x="655" y="110" width="100" height="40" as="geometry" />
        </mxCell>
        <mxCell id="6m1mBdbRtUY-7AaJxJWh-54" value="" style="endArrow=none;html=1;rounded=0;" edge="1" parent="1" source="6m1mBdbRtUY-7AaJxJWh-53" target="6m1mBdbRtUY-7AaJxJWh-5">
          <mxGeometry relative="1" as="geometry">
            <mxPoint x="354" y="271" as="sourcePoint" />
            <mxPoint x="225" y="180" as="targetPoint" />
            <Array as="points" />
          </mxGeometry>
        </mxCell>
        <mxCell id="6m1mBdbRtUY-7AaJxJWh-55" value="&lt;span style=&quot;border-bottom: 1px dotted&quot;&gt;TID&lt;/span&gt;" style="ellipse;whiteSpace=wrap;html=1;align=center;" vertex="1" parent="1">
          <mxGeometry x="505" y="210" width="100" height="40" as="geometry" />
        </mxCell>
        <mxCell id="6m1mBdbRtUY-7AaJxJWh-56" value="" style="endArrow=none;html=1;rounded=0;" edge="1" parent="1" source="6m1mBdbRtUY-7AaJxJWh-55" target="6m1mBdbRtUY-7AaJxJWh-5">
          <mxGeometry relative="1" as="geometry">
            <mxPoint x="364" y="281" as="sourcePoint" />
            <mxPoint x="235" y="190" as="targetPoint" />
            <Array as="points" />
          </mxGeometry>
        </mxCell>
        <mxCell id="6m1mBdbRtUY-7AaJxJWh-57" value="&lt;span style=&quot;border-bottom: 1px dotted&quot;&gt;password&lt;/span&gt;" style="ellipse;whiteSpace=wrap;html=1;align=center;" vertex="1" parent="1">
          <mxGeometry x="565" y="160" width="100" height="40" as="geometry" />
        </mxCell>
        <mxCell id="6m1mBdbRtUY-7AaJxJWh-58" value="" style="endArrow=none;html=1;rounded=0;" edge="1" parent="1" source="6m1mBdbRtUY-7AaJxJWh-57" target="6m1mBdbRtUY-7AaJxJWh-5">
          <mxGeometry relative="1" as="geometry">
            <mxPoint x="374" y="291" as="sourcePoint" />
            <mxPoint x="245" y="200" as="targetPoint" />
            <Array as="points" />
          </mxGeometry>
        </mxCell>
        <mxCell id="6m1mBdbRtUY-7AaJxJWh-59" value="&lt;span style=&quot;border-bottom: 1px dotted&quot;&gt;name&lt;/span&gt;" style="ellipse;whiteSpace=wrap;html=1;align=center;" vertex="1" parent="1">
          <mxGeometry x="540" y="70" width="100" height="40" as="geometry" />
        </mxCell>
        <mxCell id="6m1mBdbRtUY-7AaJxJWh-60" value="" style="endArrow=none;html=1;rounded=0;" edge="1" parent="1" source="6m1mBdbRtUY-7AaJxJWh-59">
          <mxGeometry relative="1" as="geometry">
            <mxPoint x="819" y="181" as="sourcePoint" />
            <mxPoint x="508" y="140" as="targetPoint" />
            <Array as="points" />
          </mxGeometry>
        </mxCell>
        <mxCell id="6m1mBdbRtUY-7AaJxJWh-61" value="&lt;span style=&quot;border-bottom: 1px dotted&quot;&gt;Invi_ID&lt;/span&gt;" style="ellipse;whiteSpace=wrap;html=1;align=center;" vertex="1" parent="1">
          <mxGeometry x="350" y="-50" width="100" height="40" as="geometry" />
        </mxCell>
        <mxCell id="6m1mBdbRtUY-7AaJxJWh-62" value="" style="endArrow=none;html=1;rounded=0;" edge="1" parent="1" source="6m1mBdbRtUY-7AaJxJWh-61" target="6m1mBdbRtUY-7AaJxJWh-2">
          <mxGeometry relative="1" as="geometry">
            <mxPoint x="764" y="211" as="sourcePoint" />
            <mxPoint x="453" y="170" as="targetPoint" />
            <Array as="points" />
          </mxGeometry>
        </mxCell>
        <mxCell id="6m1mBdbRtUY-7AaJxJWh-63" value="&lt;span style=&quot;border-bottom: 1px dotted&quot;&gt;spent&lt;/span&gt;" style="ellipse;whiteSpace=wrap;html=1;align=center;" vertex="1" parent="1">
          <mxGeometry x="850" y="-50" width="100" height="40" as="geometry" />
        </mxCell>
        <mxCell id="6m1mBdbRtUY-7AaJxJWh-64" value="" style="endArrow=none;html=1;rounded=0;" edge="1" parent="1" source="6m1mBdbRtUY-7AaJxJWh-63">
          <mxGeometry relative="1" as="geometry">
            <mxPoint x="1104" y="261" as="sourcePoint" />
            <mxPoint x="870" y="30" as="targetPoint" />
            <Array as="points" />
          </mxGeometry>
        </mxCell>
        <mxCell id="6m1mBdbRtUY-7AaJxJWh-65" value="&lt;span style=&quot;border-bottom: 1px dotted&quot;&gt;design&lt;/span&gt;" style="ellipse;whiteSpace=wrap;html=1;align=center;" vertex="1" parent="1">
          <mxGeometry x="110" y="-40" width="100" height="40" as="geometry" />
        </mxCell>
        <mxCell id="6m1mBdbRtUY-7AaJxJWh-66" value="" style="endArrow=none;html=1;rounded=0;entryX=0;entryY=0;entryDx=0;entryDy=0;" edge="1" parent="1" source="6m1mBdbRtUY-7AaJxJWh-65" target="6m1mBdbRtUY-7AaJxJWh-2">
          <mxGeometry relative="1" as="geometry">
            <mxPoint x="784" y="231" as="sourcePoint" />
            <mxPoint x="260" y="50" as="targetPoint" />
            <Array as="points" />
          </mxGeometry>
        </mxCell>
        <mxCell id="6m1mBdbRtUY-7AaJxJWh-67" value="&lt;span style=&quot;border-bottom: 1px dotted&quot;&gt;distribution_method&lt;/span&gt;" style="ellipse;whiteSpace=wrap;html=1;align=center;" vertex="1" parent="1">
          <mxGeometry x="220" y="-100" width="130" height="60" as="geometry" />
        </mxCell>
        <mxCell id="6m1mBdbRtUY-7AaJxJWh-68" value="" style="endArrow=none;html=1;rounded=0;" edge="1" parent="1" source="6m1mBdbRtUY-7AaJxJWh-67" target="6m1mBdbRtUY-7AaJxJWh-2">
          <mxGeometry relative="1" as="geometry">
            <mxPoint x="794" y="241" as="sourcePoint" />
            <mxPoint x="483" y="200" as="targetPoint" />
            <Array as="points" />
          </mxGeometry>
        </mxCell>
        <mxCell id="6m1mBdbRtUY-7AaJxJWh-71" value="" style="endArrow=none;html=1;rounded=0;exitX=0.5;exitY=1;exitDx=0;exitDy=0;" edge="1" parent="1" source="6m1mBdbRtUY-7AaJxJWh-1">
          <mxGeometry relative="1" as="geometry">
            <mxPoint x="810" y="70" as="sourcePoint" />
            <mxPoint x="820" y="160" as="targetPoint" />
            <Array as="points" />
          </mxGeometry>
        </mxCell>
        <mxCell id="6m1mBdbRtUY-7AaJxJWh-72" value="&lt;span style=&quot;border-bottom: 1px dotted&quot;&gt;Budget_ID&lt;/span&gt;" style="ellipse;whiteSpace=wrap;html=1;align=center;" vertex="1" parent="1">
          <mxGeometry x="910" y="20" width="100" height="40" as="geometry" />
        </mxCell>
        <mxCell id="6m1mBdbRtUY-7AaJxJWh-73" value="" style="endArrow=none;html=1;rounded=0;" edge="1" parent="1" source="6m1mBdbRtUY-7AaJxJWh-72" target="6m1mBdbRtUY-7AaJxJWh-1">
          <mxGeometry relative="1" as="geometry">
            <mxPoint x="1114" y="271" as="sourcePoint" />
            <mxPoint x="880" y="40" as="targetPoint" />
            <Array as="points" />
          </mxGeometry>
        </mxCell>
        <mxCell id="6m1mBdbRtUY-7AaJxJWh-74" value="&lt;span style=&quot;border-bottom: 1px dotted&quot;&gt;cotagory&lt;/span&gt;" style="ellipse;whiteSpace=wrap;html=1;align=center;" vertex="1" parent="1">
          <mxGeometry x="610" y="-40" width="100" height="40" as="geometry" />
        </mxCell>
        <mxCell id="6m1mBdbRtUY-7AaJxJWh-75" value="" style="endArrow=none;html=1;rounded=0;entryX=0;entryY=0.5;entryDx=0;entryDy=0;" edge="1" parent="1" source="6m1mBdbRtUY-7AaJxJWh-74" target="6m1mBdbRtUY-7AaJxJWh-1">
          <mxGeometry relative="1" as="geometry">
            <mxPoint x="1124" y="281" as="sourcePoint" />
            <mxPoint x="890" y="50" as="targetPoint" />
            <Array as="points" />
          </mxGeometry>
        </mxCell>
        <mxCell id="6m1mBdbRtUY-7AaJxJWh-76" value="&lt;span style=&quot;border-bottom: 1px dotted&quot;&gt;allocated_amount&lt;/span&gt;" style="ellipse;whiteSpace=wrap;html=1;align=center;" vertex="1" parent="1">
          <mxGeometry x="720" y="-80" width="130" height="70" as="geometry" />
        </mxCell>
        <mxCell id="6m1mBdbRtUY-7AaJxJWh-77" value="" style="endArrow=none;html=1;rounded=0;entryX=0.25;entryY=0;entryDx=0;entryDy=0;" edge="1" parent="1" source="6m1mBdbRtUY-7AaJxJWh-76" target="6m1mBdbRtUY-7AaJxJWh-1">
          <mxGeometry relative="1" as="geometry">
            <mxPoint x="994" y="261" as="sourcePoint" />
            <mxPoint x="760" y="30" as="targetPoint" />
            <Array as="points" />
          </mxGeometry>
        </mxCell>
        <mxCell id="6m1mBdbRtUY-7AaJxJWh-90" style="edgeStyle=orthogonalEdgeStyle;rounded=0;orthogonalLoop=1;jettySize=auto;html=1;exitX=0;exitY=0.75;exitDx=0;exitDy=0;" edge="1" parent="1" source="6m1mBdbRtUY-7AaJxJWh-7">
          <mxGeometry relative="1" as="geometry">
            <mxPoint x="500.35" y="360" as="sourcePoint" />
            <mxPoint x="190" y="200" as="targetPoint" />
            <Array as="points">
              <mxPoint x="190" y="380" />
            </Array>
          </mxGeometry>
        </mxCell>
        <mxCell id="6m1mBdbRtUY-7AaJxJWh-102" value="TID" style="ellipse;whiteSpace=wrap;html=1;align=center;" vertex="1" parent="1">
          <mxGeometry x="850" y="540" width="100" height="40" as="geometry" />
        </mxCell>
        <mxCell id="6m1mBdbRtUY-7AaJxJWh-109" value="name" style="ellipse;whiteSpace=wrap;html=1;align=center;" vertex="1" parent="1">
          <mxGeometry x="-20" y="390" width="100" height="40" as="geometry" />
        </mxCell>
        <mxCell id="6m1mBdbRtUY-7AaJxJWh-110" value="votes" style="ellipse;whiteSpace=wrap;html=1;align=center;" vertex="1" parent="1">
          <mxGeometry x="-210" y="530" width="100" height="40" as="geometry" />
        </mxCell>
        <mxCell id="6m1mBdbRtUY-7AaJxJWh-111" value="description" style="ellipse;whiteSpace=wrap;html=1;align=center;" vertex="1" parent="1">
          <mxGeometry x="-200" y="410" width="100" height="40" as="geometry" />
        </mxCell>
        <mxCell id="6m1mBdbRtUY-7AaJxJWh-112" value="discription" style="ellipse;whiteSpace=wrap;html=1;align=center;" vertex="1" parent="1">
          <mxGeometry x="210" y="510" width="100" height="40" as="geometry" />
        </mxCell>
        <mxCell id="6m1mBdbRtUY-7AaJxJWh-114" value="SID" style="ellipse;whiteSpace=wrap;html=1;align=center;" vertex="1" parent="1">
          <mxGeometry x="810" y="480" width="100" height="40" as="geometry" />
        </mxCell>
        <mxCell id="6m1mBdbRtUY-7AaJxJWh-115" value="&lt;u&gt;Attend_ID&lt;/u&gt;" style="ellipse;whiteSpace=wrap;html=1;align=center;" vertex="1" parent="1">
          <mxGeometry x="820" y="600" width="100" height="40" as="geometry" />
        </mxCell>
        <mxCell id="6m1mBdbRtUY-7AaJxJWh-116" value="Family_members" style="ellipse;whiteSpace=wrap;html=1;align=center;" vertex="1" parent="1">
          <mxGeometry x="685" y="610" width="100" height="40" as="geometry" />
        </mxCell>
        <mxCell id="6m1mBdbRtUY-7AaJxJWh-123" value="" style="endArrow=none;html=1;rounded=0;exitX=0;exitY=1;exitDx=0;exitDy=0;entryX=0.829;entryY=0.127;entryDx=0;entryDy=0;entryPerimeter=0;" edge="1" parent="1" source="6m1mBdbRtUY-7AaJxJWh-9" target="6m1mBdbRtUY-7AaJxJWh-110">
          <mxGeometry relative="1" as="geometry">
            <mxPoint x="-99" y="548" as="sourcePoint" />
            <mxPoint x="-126" y="534" as="targetPoint" />
            <Array as="points" />
          </mxGeometry>
        </mxCell>
        <mxCell id="6m1mBdbRtUY-7AaJxJWh-124" value="" style="endArrow=none;html=1;rounded=0;exitX=0;exitY=0.5;exitDx=0;exitDy=0;entryX=0.683;entryY=1.04;entryDx=0;entryDy=0;entryPerimeter=0;" edge="1" parent="1" source="6m1mBdbRtUY-7AaJxJWh-9" target="6m1mBdbRtUY-7AaJxJWh-111">
          <mxGeometry relative="1" as="geometry">
            <mxPoint x="-129" y="489" as="sourcePoint" />
            <mxPoint x="-160" y="490" as="targetPoint" />
            <Array as="points" />
          </mxGeometry>
        </mxCell>
        <mxCell id="6m1mBdbRtUY-7AaJxJWh-125" value="" style="endArrow=none;html=1;rounded=0;exitX=0.843;exitY=-0.006;exitDx=0;exitDy=0;exitPerimeter=0;entryX=0.094;entryY=0.795;entryDx=0;entryDy=0;entryPerimeter=0;" edge="1" parent="1" source="6m1mBdbRtUY-7AaJxJWh-9" target="6m1mBdbRtUY-7AaJxJWh-109">
          <mxGeometry relative="1" as="geometry">
            <mxPoint x="-100" y="418" as="sourcePoint" />
            <mxPoint x="-11" y="424" as="targetPoint" />
            <Array as="points" />
          </mxGeometry>
        </mxCell>
        <mxCell id="6m1mBdbRtUY-7AaJxJWh-126" value="" style="endArrow=none;html=1;rounded=0;entryX=1;entryY=0.5;entryDx=0;entryDy=0;exitX=0;exitY=0.25;exitDx=0;exitDy=0;" edge="1" parent="1" source="6m1mBdbRtUY-7AaJxJWh-8" target="6m1mBdbRtUY-7AaJxJWh-112">
          <mxGeometry relative="1" as="geometry">
            <mxPoint x="260" y="439" as="sourcePoint" />
            <mxPoint x="225" y="441" as="targetPoint" />
            <Array as="points" />
          </mxGeometry>
        </mxCell>
        <mxCell id="6m1mBdbRtUY-7AaJxJWh-128" value="" style="endArrow=none;html=1;rounded=0;exitX=0.005;exitY=0.56;exitDx=0;exitDy=0;exitPerimeter=0;entryX=1;entryY=0;entryDx=0;entryDy=0;" edge="1" parent="1" source="6m1mBdbRtUY-7AaJxJWh-114" target="6m1mBdbRtUY-7AaJxJWh-6">
          <mxGeometry relative="1" as="geometry">
            <mxPoint x="951" y="314" as="sourcePoint" />
            <mxPoint x="910" y="316" as="targetPoint" />
            <Array as="points">
              <mxPoint x="800" y="510" />
            </Array>
          </mxGeometry>
        </mxCell>
        <mxCell id="6m1mBdbRtUY-7AaJxJWh-129" value="" style="endArrow=none;html=1;rounded=0;exitX=0.5;exitY=1;exitDx=0;exitDy=0;entryX=0.461;entryY=0.01;entryDx=0;entryDy=0;entryPerimeter=0;" edge="1" parent="1" source="6m1mBdbRtUY-7AaJxJWh-6" target="6m1mBdbRtUY-7AaJxJWh-116">
          <mxGeometry relative="1" as="geometry">
            <mxPoint x="741" y="570" as="sourcePoint" />
            <mxPoint x="710" y="598" as="targetPoint" />
            <Array as="points" />
          </mxGeometry>
        </mxCell>
        <mxCell id="6m1mBdbRtUY-7AaJxJWh-130" value="" style="endArrow=none;html=1;rounded=0;exitX=0.077;exitY=0.235;exitDx=0;exitDy=0;exitPerimeter=0;entryX=0.768;entryY=1.007;entryDx=0;entryDy=0;entryPerimeter=0;" edge="1" parent="1" source="6m1mBdbRtUY-7AaJxJWh-115" target="6m1mBdbRtUY-7AaJxJWh-6">
          <mxGeometry relative="1" as="geometry">
            <mxPoint x="831" y="522" as="sourcePoint" />
            <mxPoint x="800" y="550" as="targetPoint" />
            <Array as="points" />
          </mxGeometry>
        </mxCell>
        <mxCell id="6m1mBdbRtUY-7AaJxJWh-131" value="" style="endArrow=none;html=1;rounded=0;exitX=0.005;exitY=0.56;exitDx=0;exitDy=0;exitPerimeter=0;entryX=1;entryY=0.75;entryDx=0;entryDy=0;" edge="1" parent="1" target="6m1mBdbRtUY-7AaJxJWh-6">
          <mxGeometry relative="1" as="geometry">
            <mxPoint x="850" y="560" as="sourcePoint" />
            <mxPoint x="819" y="588" as="targetPoint" />
            <Array as="points" />
          </mxGeometry>
        </mxCell>
        <mxCell id="6m1mBdbRtUY-7AaJxJWh-132" value="votes" style="ellipse;whiteSpace=wrap;html=1;align=center;" vertex="1" parent="1">
          <mxGeometry x="510" y="520" width="100" height="40" as="geometry" />
        </mxCell>
        <mxCell id="6m1mBdbRtUY-7AaJxJWh-133" value="" style="endArrow=none;html=1;rounded=0;exitX=0.998;exitY=0.378;exitDx=0;exitDy=0;entryX=0.018;entryY=0.426;entryDx=0;entryDy=0;entryPerimeter=0;exitPerimeter=0;" edge="1" parent="1" target="6m1mBdbRtUY-7AaJxJWh-132" source="6m1mBdbRtUY-7AaJxJWh-8">
          <mxGeometry relative="1" as="geometry">
            <mxPoint x="790" y="400" as="sourcePoint" />
            <mxPoint x="770" y="428" as="targetPoint" />
            <Array as="points" />
          </mxGeometry>
        </mxCell>
        <mxCell id="6m1mBdbRtUY-7AaJxJWh-134" value="performance_ID" style="ellipse;whiteSpace=wrap;html=1;align=center;" vertex="1" parent="1">
          <mxGeometry x="500" y="590" width="100" height="40" as="geometry" />
        </mxCell>
        <mxCell id="6m1mBdbRtUY-7AaJxJWh-135" value="" style="endArrow=none;html=1;rounded=0;exitX=1;exitY=1;exitDx=0;exitDy=0;entryX=0;entryY=0;entryDx=0;entryDy=0;" edge="1" parent="1" target="6m1mBdbRtUY-7AaJxJWh-134" source="6m1mBdbRtUY-7AaJxJWh-8">
          <mxGeometry relative="1" as="geometry">
            <mxPoint x="800" y="410" as="sourcePoint" />
            <mxPoint x="780" y="438" as="targetPoint" />
            <Array as="points" />
          </mxGeometry>
        </mxCell>
        <mxCell id="6m1mBdbRtUY-7AaJxJWh-136" value="name" style="ellipse;whiteSpace=wrap;html=1;align=center;" vertex="1" parent="1">
          <mxGeometry x="590" y="300" width="100" height="40" as="geometry" />
        </mxCell>
        <mxCell id="6m1mBdbRtUY-7AaJxJWh-137" value="" style="endArrow=none;html=1;rounded=0;exitX=0.944;exitY=0.008;exitDx=0;exitDy=0;entryX=0.202;entryY=0.897;entryDx=0;entryDy=0;entryPerimeter=0;exitPerimeter=0;" edge="1" parent="1" target="6m1mBdbRtUY-7AaJxJWh-136" source="6m1mBdbRtUY-7AaJxJWh-7">
          <mxGeometry relative="1" as="geometry">
            <mxPoint x="810" y="420" as="sourcePoint" />
            <mxPoint x="790" y="448" as="targetPoint" />
            <Array as="points" />
          </mxGeometry>
        </mxCell>
        <mxCell id="6m1mBdbRtUY-7AaJxJWh-138" value="task_ID" style="ellipse;whiteSpace=wrap;html=1;align=center;" vertex="1" parent="1">
          <mxGeometry x="620" y="430" width="100" height="40" as="geometry" />
        </mxCell>
        <mxCell id="6m1mBdbRtUY-7AaJxJWh-139" value="" style="endArrow=none;html=1;rounded=0;exitX=0.75;exitY=1;exitDx=0;exitDy=0;entryX=0.461;entryY=0.01;entryDx=0;entryDy=0;entryPerimeter=0;" edge="1" parent="1" target="6m1mBdbRtUY-7AaJxJWh-138" source="6m1mBdbRtUY-7AaJxJWh-7">
          <mxGeometry relative="1" as="geometry">
            <mxPoint x="820" y="430" as="sourcePoint" />
            <mxPoint x="800" y="458" as="targetPoint" />
            <Array as="points" />
          </mxGeometry>
        </mxCell>
        <mxCell id="6m1mBdbRtUY-7AaJxJWh-140" value="discription" style="ellipse;whiteSpace=wrap;html=1;align=center;" vertex="1" parent="1">
          <mxGeometry x="610" y="370" width="100" height="40" as="geometry" />
        </mxCell>
        <mxCell id="6m1mBdbRtUY-7AaJxJWh-141" value="" style="endArrow=none;html=1;rounded=0;exitX=1.001;exitY=0.855;exitDx=0;exitDy=0;entryX=0;entryY=0.5;entryDx=0;entryDy=0;exitPerimeter=0;" edge="1" parent="1" target="6m1mBdbRtUY-7AaJxJWh-140" source="6m1mBdbRtUY-7AaJxJWh-7">
          <mxGeometry relative="1" as="geometry">
            <mxPoint x="830" y="440" as="sourcePoint" />
            <mxPoint x="810" y="468" as="targetPoint" />
            <Array as="points" />
          </mxGeometry>
        </mxCell>
        <mxCell id="6m1mBdbRtUY-7AaJxJWh-142" value="Assigned_to" style="ellipse;whiteSpace=wrap;html=1;align=center;" vertex="1" parent="1">
          <mxGeometry x="510" y="430" width="100" height="40" as="geometry" />
        </mxCell>
        <mxCell id="6m1mBdbRtUY-7AaJxJWh-143" value="" style="endArrow=none;html=1;rounded=0;exitX=0.5;exitY=1;exitDx=0;exitDy=0;entryX=0.461;entryY=0.01;entryDx=0;entryDy=0;entryPerimeter=0;" edge="1" parent="1" target="6m1mBdbRtUY-7AaJxJWh-142">
          <mxGeometry relative="1" as="geometry">
            <mxPoint x="555" y="390" as="sourcePoint" />
            <mxPoint x="535" y="418" as="targetPoint" />
            <Array as="points" />
          </mxGeometry>
        </mxCell>
        <mxCell id="6m1mBdbRtUY-7AaJxJWh-146" value="name" style="ellipse;whiteSpace=wrap;html=1;align=center;" vertex="1" parent="1">
          <mxGeometry x="10" y="480" width="100" height="40" as="geometry" />
        </mxCell>
        <mxCell id="6m1mBdbRtUY-7AaJxJWh-147" value="" style="endArrow=none;html=1;rounded=0;exitX=1;exitY=0.5;exitDx=0;exitDy=0;entryX=0;entryY=0.5;entryDx=0;entryDy=0;" edge="1" parent="1" source="6m1mBdbRtUY-7AaJxJWh-9">
          <mxGeometry relative="1" as="geometry">
            <mxPoint x="-90" y="480" as="sourcePoint" />
            <mxPoint x="9.999999999991815" y="500" as="targetPoint" />
            <Array as="points" />
          </mxGeometry>
        </mxCell>
        <mxCell id="6m1mBdbRtUY-7AaJxJWh-150" style="edgeStyle=orthogonalEdgeStyle;rounded=0;orthogonalLoop=1;jettySize=auto;html=1;exitX=1;exitY=1;exitDx=0;exitDy=0;entryX=0.162;entryY=0.013;entryDx=0;entryDy=0;entryPerimeter=0;" edge="1" parent="1" source="6m1mBdbRtUY-7AaJxJWh-9" target="6m1mBdbRtUY-7AaJxJWh-13">
          <mxGeometry relative="1" as="geometry" />
        </mxCell>
        <mxCell id="6m1mBdbRtUY-7AaJxJWh-151" value="" style="endArrow=none;html=1;rounded=0;exitX=0.363;exitY=-0.032;exitDx=0;exitDy=0;exitPerimeter=0;" edge="1" parent="1" source="6m1mBdbRtUY-7AaJxJWh-8" target="6m1mBdbRtUY-7AaJxJWh-113">
          <mxGeometry relative="1" as="geometry">
            <mxPoint x="411" y="519" as="sourcePoint" />
            <mxPoint x="280" y="380" as="targetPoint" />
            <Array as="points" />
          </mxGeometry>
        </mxCell>
        <mxCell id="6m1mBdbRtUY-7AaJxJWh-113" value="name" style="ellipse;whiteSpace=wrap;html=1;align=center;" vertex="1" parent="1">
          <mxGeometry x="290" y="450" width="100" height="40" as="geometry" />
        </mxCell>
        <mxCell id="6m1mBdbRtUY-7AaJxJWh-155" style="edgeStyle=orthogonalEdgeStyle;rounded=0;orthogonalLoop=1;jettySize=auto;html=1;exitX=0.75;exitY=1;exitDx=0;exitDy=0;entryX=0.64;entryY=0.034;entryDx=0;entryDy=0;entryPerimeter=0;" edge="1" parent="1" source="6m1mBdbRtUY-7AaJxJWh-4" target="6m1mBdbRtUY-7AaJxJWh-8">
          <mxGeometry relative="1" as="geometry" />
        </mxCell>
        <mxCell id="6m1mBdbRtUY-7AaJxJWh-161" value="M:M" style="text;strokeColor=none;fillColor=none;spacingLeft=4;spacingRight=4;overflow=hidden;rotatable=0;points=[[0,0.5],[1,0.5]];portConstraint=eastwest;fontSize=12;whiteSpace=wrap;html=1;" vertex="1" parent="1">
          <mxGeometry x="190" y="200" width="30" height="20" as="geometry" />
        </mxCell>
        <mxCell id="6m1mBdbRtUY-7AaJxJWh-164" value="M:M" style="text;strokeColor=none;fillColor=none;spacingLeft=4;spacingRight=4;overflow=hidden;rotatable=0;points=[[0,0.5],[1,0.5]];portConstraint=eastwest;fontSize=12;whiteSpace=wrap;html=1;" vertex="1" parent="1">
          <mxGeometry x="130" y="200" width="40" height="20" as="geometry" />
        </mxCell>
        <mxCell id="6m1mBdbRtUY-7AaJxJWh-165" value="M:M" style="text;strokeColor=none;fillColor=none;spacingLeft=4;spacingRight=4;overflow=hidden;rotatable=0;points=[[0,0.5],[1,0.5]];portConstraint=eastwest;fontSize=12;whiteSpace=wrap;html=1;" vertex="1" parent="1">
          <mxGeometry x="530" y="320" width="40" height="20" as="geometry" />
        </mxCell>
        <mxCell id="6m1mBdbRtUY-7AaJxJWh-166" value="M:M" style="text;strokeColor=none;fillColor=none;spacingLeft=4;spacingRight=4;overflow=hidden;rotatable=0;points=[[0,0.5],[1,0.5]];portConstraint=eastwest;fontSize=12;whiteSpace=wrap;html=1;" vertex="1" parent="1">
          <mxGeometry x="440" y="490" width="40" height="20" as="geometry" />
        </mxCell>
        <mxCell id="6m1mBdbRtUY-7AaJxJWh-167" value="Family Members" style="ellipse;shape=doubleEllipse;margin=3;whiteSpace=wrap;html=1;align=center;" vertex="1" parent="1">
          <mxGeometry x="685" y="610" width="100" height="40" as="geometry" />
        </mxCell>
        <mxCell id="6m1mBdbRtUY-7AaJxJWh-168" value="TID" style="ellipse;whiteSpace=wrap;html=1;align=center;dashed=1;" vertex="1" parent="1">
          <mxGeometry x="850" y="540" width="100" height="40" as="geometry" />
        </mxCell>
        <mxCell id="6m1mBdbRtUY-7AaJxJWh-169" value="SID" style="ellipse;whiteSpace=wrap;html=1;align=center;dashed=1;" vertex="1" parent="1">
          <mxGeometry x="810" y="480" width="100" height="40" as="geometry" />
        </mxCell>
        <mxCell id="6m1mBdbRtUY-7AaJxJWh-170" value="1:1" style="text;strokeColor=none;fillColor=none;spacingLeft=4;spacingRight=4;overflow=hidden;rotatable=0;points=[[0,0.5],[1,0.5]];portConstraint=eastwest;fontSize=12;whiteSpace=wrap;html=1;" vertex="1" parent="1">
          <mxGeometry x="755" y="490" width="40" height="20" as="geometry" />
        </mxCell>
      </root>
    </mxGraphModel>
  </diagram>
</mxfile>
